<svg height="512" viewBox="0 0 64 64" width="512" xmlns="http://www.w3.org/2000/svg"><g id="flat"><path d="m58 3h-1c-3.846 0-12.517 9.63-16 14a15 15 0 0 0 -18 0c-3.48-4.368-12.153-14-16-14h-1s-2 9 1 14a114.621 114.621 0 0 0 9 12c.006 2.261.02 7.554.02 9l7.98 18c1.1 2.66 3.131 5 6 5h4c2.869 0 4.9-2.34 6-5l8-18v-9a114.621 114.621 0 0 0 9-12c3-5 1-14 1-14z" fill="#e8e7d6"/><path d="m43 21s5-7 8-9 4 2 0 7a48.876 48.876 0 0 0 -5 7z" fill="#f98c96"/><path d="m20.524 20.347c-1.324-1.783-5.083-6.72-7.524-8.347-3-2-4 2 0 7a66.136 66.136 0 0 1 4.584 6.283z" fill="#f98c96"/><path d="m23 17s-5 6-7 12l.022 9s4.978 6 10.978 3 2-4 3-7 5-12-7-17z" fill="#394d5c"/><circle cx="24" cy="34" fill="#143441" r="2"/><circle cx="40" cy="34" fill="#143441" r="2"/><path d="m37 54c0 .625-.967 2-2 2s-2-1.375-2-2v-3h-2v3c0 .625-.967 2-2 2s-2-1.375-2-2h-2a4.411 4.411 0 0 0 4 4 3.957 3.957 0 0 0 3-1.586 3.957 3.957 0 0 0 3 1.586 4.411 4.411 0 0 0 4-4z" fill="#394d5c"/><path d="m36 50a4.406 4.406 0 0 1 -4 4 4.406 4.406 0 0 1 -4-4c0-1.657 1.791-2 4-2s4 .343 4 2z" fill="#143441"/></g></svg>