<?xml version="1.0"?>
<svg xmlns="http://www.w3.org/2000/svg" xmlns:xlink="http://www.w3.org/1999/xlink" xmlns:svgjs="http://svgjs.com/svgjs" version="1.1" width="512" height="512" x="0" y="0" viewBox="0 0 512 512" style="enable-background:new 0 0 512 512" xml:space="preserve" class=""><g>
<g xmlns="http://www.w3.org/2000/svg">
	<path style="" d="M441.514,467.112c-3.824,0-7.647-1.458-10.565-4.377L325.295,357.082   c-5.835-5.835-5.835-15.295,0-21.13c5.834-5.835,15.295-5.835,21.13,0l105.653,105.653c5.835,5.835,5.835,15.295,0,21.13   C449.162,465.653,445.337,467.112,441.514,467.112z" fill="#e32f00" data-original="#136ef1" class=""/>
	<path style="" d="M166.48,192.413c-3.824,0-7.648-1.458-10.565-4.377L50.261,82.383   c-5.835-5.835-5.835-15.295,0-21.13c5.834-5.835,15.295-5.835,21.13,0l105.653,105.653c5.835,5.835,5.835,15.295,0,21.13   C174.128,190.954,170.304,192.413,166.48,192.413z" fill="#e32f00" data-original="#136ef1" class=""/>
</g>
<path xmlns="http://www.w3.org/2000/svg" style="" d="M335.861,512c-43.176,0-83.768-16.813-114.298-47.344L48.35,291.779  C17.809,261.239,0.996,220.647,0.996,177.472S17.809,93.704,48.34,63.174l23.051-23.052c17.478-17.477,45.915-17.476,63.392,0  l63.392,63.392c17.478,17.477,17.478,45.915,0,63.392l-28.814,28.814c-6.414,6.414-9.946,14.942-9.946,24.012  s3.532,17.598,9.946,24.012l100.209,99.872c0.006,0.006,0.012,0.012,0.018,0.018c6.414,6.414,14.942,9.946,24.012,9.946  s17.598-3.532,24.011-9.946l28.815-28.814c8.466-8.466,19.723-13.129,31.696-13.129c11.973,0,23.229,4.663,31.696,13.13  c0.06,0.06,0.12,0.121,0.178,0.181l63.116,65.305c17.375,17.486,17.341,45.847-0.102,63.29c-0.143,0.144-0.291,0.285-0.439,0.422  l-22.635,20.859C419.432,495.266,378.931,512,335.861,512z M103.087,56.884c-3.827,0-7.652,1.455-10.566,4.369L69.471,84.305  c-24.886,24.886-38.591,57.973-38.591,93.167s13.705,68.281,38.591,93.167l173.213,172.877  c51.383,51.382,134.972,51.382,186.344,0.01c0.143-0.144,0.291-0.285,0.439-0.422l22.589-20.816  c5.649-5.839,5.59-15.185-0.176-20.951c-0.061-0.06-0.12-0.121-0.178-0.181l-63.09-65.277c-2.813-2.775-6.534-4.302-10.49-4.302  c-3.991,0-7.743,1.555-10.566,4.377l-28.814,28.814c-12.057,12.058-28.089,18.698-45.143,18.698  c-17.044,0-33.069-6.634-45.125-18.681l-100.226-99.89c-24.91-24.91-24.91-65.411-0.018-90.303l28.814-28.814  c2.822-2.822,4.376-6.574,4.376-10.566s-1.554-7.743-4.376-10.566l-63.392-63.392C110.74,58.34,106.913,56.884,103.087,56.884z" fill="#ff3500" data-original="#17ace8" class=""/>
<g xmlns="http://www.w3.org/2000/svg">
	<path style="" d="M496.062,268.949c-8.252,0-14.942-6.69-14.942-14.942c0-123.582-100.542-224.125-224.125-224.125   c-8.252,0-14.942-6.69-14.942-14.942S248.744,0,256.996,0c67.848,0,131.635,26.421,179.61,74.397   c47.977,47.976,74.397,111.762,74.397,179.61C511.004,262.26,504.314,268.949,496.062,268.949z" fill="#fdcdc0" data-original="#1de8f1" class=""/>
	<path style="" d="M436.296,268.949c-8.252,0-14.942-6.69-14.942-14.942c0-90.627-73.731-164.358-164.358-164.358   c-8.252,0-14.942-6.69-14.942-14.942s6.69-14.942,14.942-14.942c107.105,0,194.241,87.137,194.241,194.241   C451.237,262.26,444.547,268.949,436.296,268.949z" fill="#fdcdc0" data-original="#1de8f1" class=""/>
	<path style="" d="M376.529,268.949c-8.252,0-14.942-6.69-14.942-14.942c0-57.672-46.92-104.591-104.591-104.591   c-8.252,0-14.942-6.69-14.942-14.942c0-8.252,6.69-14.942,14.942-14.942c74.149,0,134.475,60.325,134.475,134.475   C391.471,262.26,384.781,268.949,376.529,268.949z" fill="#fdcdc0" data-original="#1de8f1" class=""/>
	<path style="" d="M316.763,268.949c-8.252,0-14.942-6.69-14.942-14.942c0-24.716-20.108-44.825-44.825-44.825   c-8.252,0-14.942-6.69-14.942-14.942c0-8.252,6.69-14.942,14.942-14.942c41.194,0,74.708,33.514,74.708,74.708   C331.704,262.26,325.014,268.949,316.763,268.949z" fill="#fdcdc0" data-original="#1de8f1" class=""/>
</g>
<g xmlns="http://www.w3.org/2000/svg">
</g>
<g xmlns="http://www.w3.org/2000/svg">
</g>
<g xmlns="http://www.w3.org/2000/svg">
</g>
<g xmlns="http://www.w3.org/2000/svg">
</g>
<g xmlns="http://www.w3.org/2000/svg">
</g>
<g xmlns="http://www.w3.org/2000/svg">
</g>
<g xmlns="http://www.w3.org/2000/svg">
</g>
<g xmlns="http://www.w3.org/2000/svg">
</g>
<g xmlns="http://www.w3.org/2000/svg">
</g>
<g xmlns="http://www.w3.org/2000/svg">
</g>
<g xmlns="http://www.w3.org/2000/svg">
</g>
<g xmlns="http://www.w3.org/2000/svg">
</g>
<g xmlns="http://www.w3.org/2000/svg">
</g>
<g xmlns="http://www.w3.org/2000/svg">
</g>
<g xmlns="http://www.w3.org/2000/svg">
</g>
</g></svg>
