<svg height="512" viewBox="0 0 64 64" width="512" xmlns="http://www.w3.org/2000/svg"><g id="flat"><path d="m43 12h-22l-10 14 2 25a3.285 3.285 0 0 0 3 3 3.991 3.991 0 0 0 4-4v-8h24v8a3.991 3.991 0 0 0 4 4 3.285 3.285 0 0 0 3-3l2-25z" fill="#995f5b"/><path d="m32 31c-4.418 0-8 4.925-8 11h16c0-6.075-3.582-11-8-11z" fill="#ceac9a"/><path d="m20 42v3c0 4.418 5.373 10 12 10s12-5.582 12-10v-3z" fill="#bc9888"/><path d="m24 42h-4l1-5z" fill="#f4f4e6"/><path d="m40 42h4l-1-5z" fill="#f4f4e6"/><path d="m36 36a4.406 4.406 0 0 1 -4 4 4.406 4.406 0 0 1 -4-4c0-1.657 1.791-2 4-2s4 .343 4 2z" fill="#143441"/><path d="m32 52a8.9 8.9 0 0 1 -7.895-4.553l1.788-.9a6.9 6.9 0 0 0 6.107 3.453z" fill="#ceac9a"/><path d="m11 26-2-5-2 4-4-6s5-7 10-11 8 4 8 4z" fill="#66342e"/><rect fill="#995f5b" height="2" rx="1" transform="matrix(.486 -.874 .874 .486 -8.509 18.535)" width="10.296" x="6.352" y="15.5"/><path d="m12.034 41.023a1 1 0 0 1 -.242-1.434 15.7 15.7 0 0 1 2.744-2.838 1 1 0 0 1 1.511.34 1.014 1.014 0 0 1 -.319 1.263 13.8 13.8 0 0 0 -2.347 2.446 1 1 0 0 1 -1.347.223z" fill="#66342e"/><path d="m12.034 35.023a1 1 0 0 1 -.242-1.434 15.7 15.7 0 0 1 2.744-2.838 1 1 0 0 1 1.511.34 1.014 1.014 0 0 1 -.319 1.263 13.8 13.8 0 0 0 -2.347 2.446 1 1 0 0 1 -1.347.223z" fill="#66342e"/><circle cx="22" cy="26" fill="#301a12" r="2"/><path d="m53 26 2-5 2 4 4-6s-5-7-10-11-8 4-8 4z" fill="#66342e"/><rect fill="#995f5b" height="10.296" rx="1" transform="matrix(.874 -.486 .486 .874 -1.406 27.573)" width="2" x="51.5" y="11.352"/><path d="m50.618 40.8a13.806 13.806 0 0 0 -2.345-2.445 1.012 1.012 0 0 1 -.318-1.262 1 1 0 0 1 1.511-.34 15.662 15.662 0 0 1 2.744 2.838 1 1 0 0 1 -.242 1.434 1 1 0 0 1 -1.35-.225z" fill="#66342e"/><path d="m50.618 34.8a13.806 13.806 0 0 0 -2.345-2.445 1.012 1.012 0 0 1 -.318-1.262 1 1 0 0 1 1.511-.34 15.662 15.662 0 0 1 2.744 2.838 1 1 0 0 1 -.242 1.434 1 1 0 0 1 -1.35-.225z" fill="#66342e"/><circle cx="42" cy="26" fill="#301a12" r="2"/><g fill="#66342e"><path d="m40.164 20.014a4.841 4.841 0 0 0 -4.376 1.119c-1.442 1.385-1.791 3.64-1.842 5.214a11.648 11.648 0 0 0 -3.889.067c-.043-1.577-.383-3.877-1.845-5.281a4.843 4.843 0 0 0 -4.376-1.119c-3.291.548-5.053.792-5.959.9a1 1 0 0 0 -.877.992 1 1 0 0 0 1.115.992c.987-.117 2.8-.369 6.049-.912a2.927 2.927 0 0 1 2.66.588c1.047 1 1.255 3.019 1.238 4.358a14.024 14.024 0 0 0 -1.625.679 1 1 0 0 0 -.392 1.456.993.993 0 0 0 1.266.347 10.175 10.175 0 0 1 9.377-.041.985.985 0 0 0 1.284-.332 1.008 1.008 0 0 0 -.359-1.441 11.814 11.814 0 0 0 -1.677-.744c-.008-1.338.214-3.3 1.24-4.282a2.929 2.929 0 0 1 2.66-.588c3.261.544 5.071.8 6.057.913a1 1 0 0 0 1.115-.985.994.994 0 0 0 -.877-1c-.908-.107-2.67-.351-5.967-.9z"/><rect height="7" rx="1" width="2" x="31" y="16"/></g></g></svg>